<svg xmlns="http://www.w3.org/2000/svg" shape-rendering="geometricPrecision" text-rendering="geometricPrecision" image-rendering="optimizeQuality" fill-rule="evenodd" clip-rule="evenodd" viewBox="0 0 488 512.45"><path fill-rule="nonzero" fill="#fff" d="M487.93 20.57c0-14.73-5.7-20.57-20.46-20.57H97.27c-14.8 0-20.58 5.77-20.58 20.57V247H12.47C5.58 247 0 252.59 0 259.47v157.49c0 6.89 5.58 12.47 12.47 12.47h64.22v62.45c0 14.84 5.75 20.57 20.58 20.57H333.7L488 364.11c0-112.46-.07-231.04-.07-343.54zM91.07 247V15.92h382.6c0 105.45-.04 234.19-.04 339.61H343.04c-8.36 0-15.04 6.8-15.04 15.04V495.1H91.07v-65.67H271.7c6.89 0 12.47-5.58 12.47-12.47V259.47c0-6.88-5.58-12.47-12.47-12.47H91.07zm76.1 98.91c5.33 0 5.46 9.12 0 9.12H40.45c-5.46 0-5.33-9.12 0-9.12h126.72zm-125.8-64.8h43.85c2.73 0 4.96 2.27 4.96 4.97v40.1c0 2.7-2.26 4.97-4.96 4.97H41.37c-2.71 0-4.97-2.23-4.97-4.97v-40.1c0-2.74 2.23-4.97 4.97-4.97zm67.81 116.78c5.34 0 5.47-9.12 0-9.12H40.45c-5.46 0-5.34 9.12 0 9.12h68.73zm-68.73-30.54c-5.34 0-5.46 9.1 0 9.1h101.07c5.47 0 5.35-9.1 0-9.1H40.45zM12.47 259.47H271.7v157.49H12.47V259.47zM133.65 50.21h69.64c4.34 0 7.89 3.6 7.89 7.89v63.69c0 4.29-3.6 7.89-7.89 7.89h-69.64c-4.29 0-7.89-3.55-7.89-7.89V58.1c0-4.34 3.55-7.89 7.89-7.89zm299.76 3.35c7.27 0 7.44 12.41 0 12.41H235.87c-7.44 0-7.26-12.41 0-12.41h197.54zm-78.98 72.77c7.26 0 7.44-12.42 0-12.42H235.87c-7.44 0-7.26 12.42 0 12.42h118.56zm-118.56-42.6c-7.26 0-7.43 12.41 0 12.41h162.6c7.45 0 7.28-12.41 0-12.41h-162.6z"/></svg>