<?xml version="1.0" encoding="utf-8"?><svg version="1.1" id="Layer_1" xmlns="http://www.w3.org/2000/svg" xmlns:xlink="http://www.w3.org/1999/xlink" x="0px" y="0px" viewBox="0 0 89.2 122.88" style="enable-background:new 0 0 89.2 122.88" xml:space="preserve"><g><path fill="#fff" d="M70.91,67.52h-5.33L60.14,107h5.33L70.91,67.52L70.91,67.52L70.91,67.52L70.91,67.52z M63.76,4.26l24,4.06 c0.47,0.08,0.85,0.34,1.1,0.69c0.25,0.35,0.37,0.8,0.29,1.26l-7.02,41.51h1.68c0.32,0.02,0.59,0.04,0.92,0.09 c1.12,0.19,2.15,0.73,2.94,1.49c0.91,0.9,1.5,2.1,1.53,3.44c0,0.28-0.03,0.57-0.05,0.85l-6.58,59.74 c-0.09,0.92-0.24,1.75-0.71,2.62c-0.91,1.69-2.59,2.86-4.67,2.86H12.51c-0.49,0-0.94,0-1.43-0.07c-0.2-0.03-0.39-0.07-0.57-0.13 c-0.28-0.08-0.56-0.19-0.82-0.31c-0.24-0.12-0.47-0.24-0.7-0.4c-1.36-0.93-2.25-2.5-2.42-4.24L0.04,57.45 C0.02,57.23,0,56.98,0,56.76c0.04-1.33,0.63-2.51,1.53-3.4c0.79-0.77,1.85-1.32,2.99-1.5c0.13-0.02,0.26-0.03,0.4-0.04l-2.84-19.3 l-0.26,0.04l0.44-1.38l6.34-20l0.54-1.71l1.05,1.46l12.43,17.24l0.87,1.2l-0.3,0.04l0,0l0,0l3.37,22.38h8.59l-0.51-3.17l0,0 c4.62,0.51,8.97,0.15,13.03-1.2l0.12,4.37H54l7.81-46.13c0.08-0.47,0.34-0.85,0.69-1.1C62.85,4.3,63.3,4.18,63.76,4.26L63.76,4.26 L63.76,4.26z M74.1,51.79l-0.42-0.07c-0.85-0.14-1.44-0.85-1.32-1.58c0.12-0.73,0.92-1.21,1.77-1.06l5.16,0.87l1.36-8.06 l-10.89-1.84c-0.85-0.14-1.44-0.85-1.32-1.58s0.92-1.21,1.77-1.06l10.89,1.84l1.44-8.48l-5.16-0.88c-0.85-0.14-1.44-0.85-1.32-1.58 s0.92-1.21,1.77-1.06l5.16,0.87l1.41-8.38L73.5,17.88c-0.85-0.14-1.43-0.85-1.31-1.58c0.12-0.73,0.91-1.2,1.76-1.06l10.89,1.84 l1-5.92l-21.2-3.59l-7.48,44.21H74.1L74.1,51.79z M12.36,17.01l-3.9,0.57L4.41,30.34l15.87-2.34L12.36,17.01L12.36,17.01 L12.36,17.01L12.36,17.01z M36.48,0c1.31,7.91,12.24,11.76,9.4,20.41c-0.75,2.3-2.67,4.55-5.02,5.51 c-0.95,0.39-1.95,0.57-2.97,0.46c-0.45-0.05-0.9-0.15-1.36-0.3c-5.68-1.91-7-8.5-5.91-13.77C31.61,7.45,34.43,2.96,36.48,0L36.48,0 L36.48,0z M36.03,29.79c1.71,0.51,4.71,0.57,6.67-0.68l4.67,16.02c-4.46,1.48-8.91,2.12-13.32,1.32 C34.98,40.09,35.66,36.36,36.03,29.79L36.03,29.79L36.03,29.79z M48.12,67.52h-5.34V107h5.34V67.52L48.12,67.52L48.12,67.52 L48.12,67.52z M25.34,67.52H20L25.44,107h5.34L25.34,67.52L25.34,67.52L25.34,67.52L25.34,67.52z M83.74,56.57H5.51 c-0.51,0-0.75,0.09-0.71,0.63l6.53,60.09l0,0v0.01c0.03,0.34,0.18,0.62,0.4,0.75l0,0l0.07,0.03l0.05,0.01h0.07h65.25 c0.54,0,0.6-0.75,0.64-1.15l6.59-59.78C84.44,56.7,84.17,56.57,83.74,56.57L83.74,56.57L83.74,56.57z"/></g></svg>